<svg width="721" height="337" viewBox="0 0 721 337" fill="none" xmlns="http://www.w3.org/2000/svg" style="">
    <g id="technicalshowcase">
        <g id="Welcome">
            <g id="Vector">
                <mask id="path-1-inside-1_1_10" fill="white">
                    <path d="M73.388 149.268C72.7907 149.268 72.0227 148.415 71.084 146.708C70.7427 145.855 70.3587 144.873 69.932 143.764C69.5907 142.74 69.3347 141.545 69.164 140.18C66.5187 141.801 64.1293 142.612 61.996 142.612C56.62 142.612 53.932 138.175 53.932 129.3C53.932 125.545 54.4867 121.151 55.596 116.116C56.7907 111.081 58.7107 105.449 61.356 99.22L74.924 67.86C76.0333 65.3853 76.8013 63.0813 77.228 60.948C77.6547 58.8147 77.868 56.8947 77.868 55.188C77.868 47.5933 73.4307 43.796 64.556 43.796C54.316 43.796 43.1373 48.1907 31.02 56.98C18.476 66.1107 11.052 75.668 8.748 85.652C8.236 87.7853 7.98 89.748 7.98 91.54C7.98 99.476 12.076 103.444 20.268 103.444C20.78 103.444 21.292 103.444 21.804 103.444C22.316 103.359 22.8707 103.316 23.468 103.316C26.6253 102.889 30.0387 101.439 33.708 98.964C37.4627 96.489 39.2973 95.252 39.212 95.252C39.6387 95.252 39.852 95.38 39.852 95.636C39.852 96.063 39.5107 96.617 38.828 97.3C36.268 100.116 33.3667 102.207 30.124 103.572C26.9667 104.852 23.468 105.492 19.628 105.492C8.876 105.492 3.5 100.543 3.5 90.644C3.5 88.6813 3.756 86.6333 4.268 84.5C6.65733 73.5773 14.8493 63.5507 28.844 54.42C41.8147 45.8867 54.188 41.62 65.964 41.62C77.996 41.62 84.012 46.7827 84.012 57.108C84.012 58.9 83.8413 60.7773 83.5 62.74C83.1587 64.7027 82.5187 66.7933 81.58 69.012L68.396 100.5C65.6653 106.985 63.66 112.788 62.38 117.908C61.1853 122.943 60.588 127.124 60.588 130.452C60.588 136.425 61.9533 139.412 64.684 139.412C65.3667 139.412 66.0067 139.327 66.604 139.156C67.2867 138.985 68.0547 138.687 68.908 138.26C68.8227 137.321 68.7373 136.383 68.652 135.444C68.652 134.505 68.652 133.567 68.652 132.628C68.652 128.873 68.9507 125.119 69.548 121.364C70.2307 117.609 71.1267 113.769 72.236 109.844C71.8093 109.161 71.596 108.351 71.596 107.412C71.596 106.047 72.492 104.809 74.284 103.7C77.7827 93.716 81.1533 85.2253 84.396 78.228C87.6387 71.2307 90.8387 65.7267 93.996 61.716C97.4093 57.1933 100.865 54.932 104.364 54.932C106.071 54.932 107.479 55.4867 108.588 56.596C109.783 57.7053 110.209 58.6867 109.868 59.54C109.783 60.052 109.484 60.308 108.972 60.308C108.46 60.1373 108.204 59.8813 108.204 59.54C108.119 57.3213 107.308 56.212 105.772 56.212C102.871 56.212 99.628 58.516 96.044 63.124C92.716 67.3907 89.388 72.8947 86.06 79.636C82.8173 86.3773 79.532 94.356 76.204 103.572C77.484 105.62 79.3187 106.559 81.708 106.388V106.516C81.708 106.772 81.5373 107.113 81.196 107.54C80.8547 107.967 80.2147 108.393 79.276 108.82C78.508 109.417 77.74 109.972 76.972 110.484C76.204 110.996 75.436 111.508 74.668 112.02L73.644 111.38C72.5347 114.964 71.6813 118.463 71.084 121.876C70.572 125.289 70.316 128.617 70.316 131.86C70.316 132.799 70.316 133.695 70.316 134.548C70.4013 135.401 70.4867 136.297 70.572 137.236C77.8253 132.543 86.6573 122.217 97.068 106.26C102.103 98.665 106.071 92.0093 108.972 86.292C111.873 80.4893 113.793 75.6253 114.732 71.7C115.5 68.628 117.335 67.092 120.236 67.092C122.028 67.092 122.924 67.604 122.924 68.628L122.028 71.828C114.775 92.9907 111.148 109.247 111.148 120.596C111.148 132.201 113.665 138.004 118.7 138.004C121.26 138.004 124.161 136.212 127.404 132.628C130.732 129.044 134.188 123.583 137.772 116.244L151.596 87.828C155.265 80.3187 158.807 73.7053 162.22 67.988C165.633 62.2707 168.833 57.364 171.82 53.268C179.927 42.0893 187.009 36.5 193.068 36.5C196.823 36.5 198.7 37.4387 198.7 39.316C198.7 40.6813 197.079 41.364 193.836 41.364C184.791 41.364 174.295 51.86 162.348 72.852C158.593 80.3613 154.839 87.828 151.084 95.252C147.329 102.676 143.532 110.1 139.692 117.524C131.415 132.713 124.247 140.308 118.188 140.308C109.313 140.308 104.876 134.079 104.876 121.62C104.876 117.865 105.26 113.471 106.028 108.436C106.881 103.401 108.076 97.769 109.612 91.54C102.017 103.913 94.9773 114.068 88.492 122.004C82.0067 129.94 76.1187 135.7 70.828 139.284C71.2547 141.929 71.852 144.148 72.62 145.94C73.4733 147.817 73.772 148.884 73.516 149.14L73.388 149.268ZM165.866 137.748C162.367 137.748 159.338 136.767 156.778 134.804C154.303 132.756 153.066 129.684 153.066 125.588C153.066 121.065 154.559 116.415 157.546 111.636C159.082 109.161 160.959 107.199 163.178 105.748C165.397 104.212 167.359 103.444 169.066 103.444C171.541 103.444 172.778 104.937 172.778 107.924C172.778 110.484 171.071 113.599 167.658 117.268C164.501 120.511 161.514 122.729 158.698 123.924C158.613 124.265 158.527 124.649 158.442 125.076C158.442 125.417 158.442 125.801 158.442 126.228C158.442 131.604 161.642 134.292 168.042 134.292C171.711 134.292 175.125 133.183 178.282 130.964C181.525 128.66 184.341 126.057 186.73 123.156C187.157 122.644 187.541 122.388 187.882 122.388C188.223 122.388 188.394 122.559 188.394 122.9C188.394 123.241 188.223 123.711 187.882 124.308C187.541 124.82 187.285 125.161 187.114 125.332C185.749 127.209 184.298 128.873 182.762 130.324C181.311 131.775 179.349 133.183 176.874 134.548C175.082 135.657 173.205 136.468 171.242 136.98C169.365 137.492 167.573 137.748 165.866 137.748ZM159.21 121.236C160.319 120.639 161.386 119.956 162.41 119.188C163.519 118.335 164.586 117.353 165.61 116.244C167.914 113.513 169.066 111.124 169.066 109.076C169.066 107.796 168.682 107.156 167.914 107.156C167.231 107.156 166.335 107.753 165.226 108.948C164.202 110.057 163.221 111.465 162.282 113.172C160.661 116.5 159.637 119.188 159.21 121.236ZM199.494 138.26C190.875 138.26 186.566 131.903 186.566 119.188C186.566 106.729 190.662 93.204 198.854 78.612C206.875 64.1053 214.47 56.852 221.638 56.852C224.198 56.852 225.905 58.6013 226.758 62.1V63.764C226.758 69.908 222.022 80.276 212.55 94.868C208.539 101.183 204.742 106.687 201.158 111.38C197.659 116.073 194.374 120.041 191.302 123.284C192.326 130.964 195.867 134.804 201.926 134.804C205.595 134.804 208.71 133.78 211.27 131.732C213.83 129.599 216.561 126.74 219.462 123.156C219.974 122.644 220.315 122.388 220.486 122.388C220.742 122.388 220.87 122.601 220.87 123.028C220.87 123.625 220.571 124.393 219.974 125.332C216.305 130.025 212.849 133.353 209.606 135.316C206.363 137.279 202.993 138.26 199.494 138.26ZM191.43 120.084C196.038 115.561 202.054 106.601 209.478 93.204C217.329 78.9533 221.254 69.14 221.254 63.764C221.254 61.3747 220.571 60.18 219.206 60.18C213.915 60.18 207.899 67.7747 201.158 82.964C198.001 90.4733 195.569 97.3 193.862 103.444C192.241 109.588 191.43 115.135 191.43 120.084ZM229.425 137.62C226.268 137.62 223.793 136.553 222.001 134.42C220.209 132.201 219.313 129.471 219.313 126.228C219.313 122.217 221.276 117.78 225.201 112.916C229.212 108.137 233.222 105.748 237.233 105.748C240.305 105.748 241.841 106.9 241.841 109.204C241.841 110.057 241.244 111.593 240.049 113.812C238.94 116.116 238.129 117.268 237.617 117.268C237.361 117.268 237.19 116.969 237.105 116.372C237.105 116.031 237.19 115.476 237.361 114.708C237.617 113.94 237.745 113.385 237.745 113.044C237.745 110.911 236.465 109.844 233.905 109.844C231.089 109.844 228.657 111.636 226.609 115.22C224.817 118.377 223.921 121.535 223.921 124.692C223.921 131.007 226.566 134.164 231.857 134.164C236.124 134.164 239.708 133.14 242.609 131.092C245.51 128.959 248.369 126.271 251.185 123.028C251.612 122.601 251.996 122.388 252.337 122.388C252.678 122.388 252.849 122.559 252.849 122.9C252.849 123.241 252.678 123.625 252.337 124.052C252.081 124.479 251.825 124.905 251.569 125.332C250.46 126.783 249.094 128.319 247.473 129.94C245.937 131.561 244.188 132.969 242.225 134.164C239.836 135.529 237.574 136.425 235.441 136.852C233.308 137.364 231.302 137.62 229.425 137.62ZM254.522 139.028C251.365 139.028 249.786 136.724 249.786 132.116C249.786 130.921 249.914 129.599 250.17 128.148C250.426 126.697 250.767 125.161 251.194 123.54C252.047 120.553 253.327 117.183 255.034 113.428C257.594 108.137 259.727 105.492 261.434 105.492C263.055 105.492 264.378 106.388 265.402 108.18C266.085 107.924 266.639 107.796 267.066 107.796C269.455 107.796 270.65 109.588 270.65 113.172C270.65 114.708 270.351 116.5 269.754 118.548C269.157 120.596 268.133 123.156 266.682 126.228C268.815 128.191 270.906 129.172 272.954 129.172C274.575 129.172 276.111 128.788 277.562 128.02C279.013 127.167 280.634 125.545 282.426 123.156C282.597 122.985 282.853 122.9 283.194 122.9C283.45 122.9 283.578 123.156 283.578 123.668C283.578 124.18 283.365 124.735 282.938 125.332C281.829 126.783 280.421 128.105 278.714 129.3C277.093 130.409 275.045 130.964 272.57 130.964C270.095 130.964 267.877 130.111 265.914 128.404C262.671 135.487 258.874 139.028 254.522 139.028ZM265.146 124.564C265.829 123.028 266.341 121.449 266.682 119.828C267.023 118.207 267.194 116.457 267.194 114.58C267.194 111.679 266.341 110.228 264.634 110.228C263.013 110.228 262.202 111.807 262.202 114.964C262.202 116.329 262.501 117.993 263.098 119.956C263.781 121.919 264.463 123.455 265.146 124.564ZM256.826 135.444C258.021 135.444 259.514 134.292 261.306 131.988C262.074 131.049 262.714 130.111 263.226 129.172C263.738 128.148 264.079 127.465 264.25 127.124C262.97 125.673 261.861 124.137 260.922 122.516C259.983 120.895 259.429 119.231 259.258 117.524C258.234 118.377 257.167 120.596 256.058 124.18C254.949 127.764 254.394 130.367 254.394 131.988C254.394 134.292 255.205 135.444 256.826 135.444ZM301.641 138.644C300.873 138.644 300.276 138.004 299.849 136.724V134.292C299.849 123.711 298.484 118.42 295.753 118.42C293.961 118.42 291.23 121.321 287.561 127.124C286.537 128.66 285.513 130.196 284.489 131.732C283.55 133.268 282.612 134.804 281.673 136.34C281.161 136.511 280.777 136.596 280.521 136.596C279.668 136.596 279.241 135.956 279.241 134.676V134.292L280.777 129.172C282.569 123.796 283.892 119.529 284.745 116.372C285.598 113.129 286.025 110.996 286.025 109.972C286.025 109.631 285.982 109.417 285.897 109.332C287.604 107.796 289.225 107.028 290.761 107.028C291.529 107.028 291.828 107.241 291.657 107.668L289.353 120.596C290.206 119.401 291.956 117.908 294.601 116.116C295.966 115.177 297.118 114.495 298.057 114.068C299.081 113.641 299.892 113.428 300.489 113.428C303.134 113.428 304.628 118.761 304.969 129.428C305.908 127.721 307.145 125.588 308.681 123.028C310.302 120.468 312.18 117.524 314.313 114.196C315.508 112.575 316.788 111.764 318.153 111.764C319.433 111.764 320.201 112.575 320.457 114.196C320.713 117.524 320.969 120.639 321.225 123.54C321.481 126.356 322.036 128.617 322.889 130.324C323.742 132.031 325.193 132.927 327.241 133.012C329.801 133.012 332.318 132.073 334.793 130.196C337.353 128.233 339.657 125.887 341.705 123.156C342.132 122.473 342.558 122.132 342.985 122.132C343.241 122.132 343.369 122.473 343.369 123.156C343.369 123.327 343.198 123.711 342.857 124.308C342.516 124.82 342.26 125.161 342.089 125.332C340.638 127.465 338.932 129.556 336.969 131.604C335.092 133.567 333.086 135.188 330.953 136.468C328.82 137.663 326.686 138.26 324.553 138.26C321.396 138.26 319.092 136.553 317.641 133.14C316.19 129.727 315.294 124.905 314.953 118.676C313.161 120.297 311.241 123.199 309.193 127.38C307.913 129.769 306.846 131.775 305.993 133.396C305.14 134.932 304.5 136.041 304.073 136.724C303.22 138.004 302.409 138.644 301.641 138.644ZM354.366 137.748C350.867 137.748 347.838 136.767 345.278 134.804C342.803 132.756 341.566 129.684 341.566 125.588C341.566 121.065 343.059 116.415 346.046 111.636C347.582 109.161 349.459 107.199 351.678 105.748C353.897 104.212 355.859 103.444 357.566 103.444C360.041 103.444 361.278 104.937 361.278 107.924C361.278 110.484 359.571 113.599 356.158 117.268C353.001 120.511 350.014 122.729 347.198 123.924C347.113 124.265 347.027 124.649 346.942 125.076C346.942 125.417 346.942 125.801 346.942 126.228C346.942 131.604 350.142 134.292 356.542 134.292C360.211 134.292 363.625 133.183 366.782 130.964C370.025 128.66 372.841 126.057 375.23 123.156C375.657 122.644 376.041 122.388 376.382 122.388C376.723 122.388 376.894 122.559 376.894 122.9C376.894 123.241 376.723 123.711 376.382 124.308C376.041 124.82 375.785 125.161 375.614 125.332C374.249 127.209 372.798 128.873 371.262 130.324C369.811 131.775 367.849 133.183 365.374 134.548C363.582 135.657 361.705 136.468 359.742 136.98C357.865 137.492 356.073 137.748 354.366 137.748ZM347.71 121.236C348.819 120.639 349.886 119.956 350.91 119.188C352.019 118.335 353.086 117.353 354.11 116.244C356.414 113.513 357.566 111.124 357.566 109.076C357.566 107.796 357.182 107.156 356.414 107.156C355.731 107.156 354.835 107.753 353.726 108.948C352.702 110.057 351.721 111.465 350.782 113.172C349.161 116.5 348.137 119.188 347.71 121.236Z"
                          class="WKCoMIDn_0"/>
                </mask>
                <path d="M73.388 149.268C72.7907 149.268 72.0227 148.415 71.084 146.708C70.7427 145.855 70.3587 144.873 69.932 143.764C69.5907 142.74 69.3347 141.545 69.164 140.18C66.5187 141.801 64.1293 142.612 61.996 142.612C56.62 142.612 53.932 138.175 53.932 129.3C53.932 125.545 54.4867 121.151 55.596 116.116C56.7907 111.081 58.7107 105.449 61.356 99.22L74.924 67.86C76.0333 65.3853 76.8013 63.0813 77.228 60.948C77.6547 58.8147 77.868 56.8947 77.868 55.188C77.868 47.5933 73.4307 43.796 64.556 43.796C54.316 43.796 43.1373 48.1907 31.02 56.98C18.476 66.1107 11.052 75.668 8.748 85.652C8.236 87.7853 7.98 89.748 7.98 91.54C7.98 99.476 12.076 103.444 20.268 103.444C20.78 103.444 21.292 103.444 21.804 103.444C22.316 103.359 22.8707 103.316 23.468 103.316C26.6253 102.889 30.0387 101.439 33.708 98.964C37.4627 96.489 39.2973 95.252 39.212 95.252C39.6387 95.252 39.852 95.38 39.852 95.636C39.852 96.063 39.5107 96.617 38.828 97.3C36.268 100.116 33.3667 102.207 30.124 103.572C26.9667 104.852 23.468 105.492 19.628 105.492C8.876 105.492 3.5 100.543 3.5 90.644C3.5 88.6813 3.756 86.6333 4.268 84.5C6.65733 73.5773 14.8493 63.5507 28.844 54.42C41.8147 45.8867 54.188 41.62 65.964 41.62C77.996 41.62 84.012 46.7827 84.012 57.108C84.012 58.9 83.8413 60.7773 83.5 62.74C83.1587 64.7027 82.5187 66.7933 81.58 69.012L68.396 100.5C65.6653 106.985 63.66 112.788 62.38 117.908C61.1853 122.943 60.588 127.124 60.588 130.452C60.588 136.425 61.9533 139.412 64.684 139.412C65.3667 139.412 66.0067 139.327 66.604 139.156C67.2867 138.985 68.0547 138.687 68.908 138.26C68.8227 137.321 68.7373 136.383 68.652 135.444C68.652 134.505 68.652 133.567 68.652 132.628C68.652 128.873 68.9507 125.119 69.548 121.364C70.2307 117.609 71.1267 113.769 72.236 109.844C71.8093 109.161 71.596 108.351 71.596 107.412C71.596 106.047 72.492 104.809 74.284 103.7C77.7827 93.716 81.1533 85.2253 84.396 78.228C87.6387 71.2307 90.8387 65.7267 93.996 61.716C97.4093 57.1933 100.865 54.932 104.364 54.932C106.071 54.932 107.479 55.4867 108.588 56.596C109.783 57.7053 110.209 58.6867 109.868 59.54C109.783 60.052 109.484 60.308 108.972 60.308C108.46 60.1373 108.204 59.8813 108.204 59.54C108.119 57.3213 107.308 56.212 105.772 56.212C102.871 56.212 99.628 58.516 96.044 63.124C92.716 67.3907 89.388 72.8947 86.06 79.636C82.8173 86.3773 79.532 94.356 76.204 103.572C77.484 105.62 79.3187 106.559 81.708 106.388V106.516C81.708 106.772 81.5373 107.113 81.196 107.54C80.8547 107.967 80.2147 108.393 79.276 108.82C78.508 109.417 77.74 109.972 76.972 110.484C76.204 110.996 75.436 111.508 74.668 112.02L73.644 111.38C72.5347 114.964 71.6813 118.463 71.084 121.876C70.572 125.289 70.316 128.617 70.316 131.86C70.316 132.799 70.316 133.695 70.316 134.548C70.4013 135.401 70.4867 136.297 70.572 137.236C77.8253 132.543 86.6573 122.217 97.068 106.26C102.103 98.665 106.071 92.0093 108.972 86.292C111.873 80.4893 113.793 75.6253 114.732 71.7C115.5 68.628 117.335 67.092 120.236 67.092C122.028 67.092 122.924 67.604 122.924 68.628L122.028 71.828C114.775 92.9907 111.148 109.247 111.148 120.596C111.148 132.201 113.665 138.004 118.7 138.004C121.26 138.004 124.161 136.212 127.404 132.628C130.732 129.044 134.188 123.583 137.772 116.244L151.596 87.828C155.265 80.3187 158.807 73.7053 162.22 67.988C165.633 62.2707 168.833 57.364 171.82 53.268C179.927 42.0893 187.009 36.5 193.068 36.5C196.823 36.5 198.7 37.4387 198.7 39.316C198.7 40.6813 197.079 41.364 193.836 41.364C184.791 41.364 174.295 51.86 162.348 72.852C158.593 80.3613 154.839 87.828 151.084 95.252C147.329 102.676 143.532 110.1 139.692 117.524C131.415 132.713 124.247 140.308 118.188 140.308C109.313 140.308 104.876 134.079 104.876 121.62C104.876 117.865 105.26 113.471 106.028 108.436C106.881 103.401 108.076 97.769 109.612 91.54C102.017 103.913 94.9773 114.068 88.492 122.004C82.0067 129.94 76.1187 135.7 70.828 139.284C71.2547 141.929 71.852 144.148 72.62 145.94C73.4733 147.817 73.772 148.884 73.516 149.14L73.388 149.268ZM165.866 137.748C162.367 137.748 159.338 136.767 156.778 134.804C154.303 132.756 153.066 129.684 153.066 125.588C153.066 121.065 154.559 116.415 157.546 111.636C159.082 109.161 160.959 107.199 163.178 105.748C165.397 104.212 167.359 103.444 169.066 103.444C171.541 103.444 172.778 104.937 172.778 107.924C172.778 110.484 171.071 113.599 167.658 117.268C164.501 120.511 161.514 122.729 158.698 123.924C158.613 124.265 158.527 124.649 158.442 125.076C158.442 125.417 158.442 125.801 158.442 126.228C158.442 131.604 161.642 134.292 168.042 134.292C171.711 134.292 175.125 133.183 178.282 130.964C181.525 128.66 184.341 126.057 186.73 123.156C187.157 122.644 187.541 122.388 187.882 122.388C188.223 122.388 188.394 122.559 188.394 122.9C188.394 123.241 188.223 123.711 187.882 124.308C187.541 124.82 187.285 125.161 187.114 125.332C185.749 127.209 184.298 128.873 182.762 130.324C181.311 131.775 179.349 133.183 176.874 134.548C175.082 135.657 173.205 136.468 171.242 136.98C169.365 137.492 167.573 137.748 165.866 137.748ZM159.21 121.236C160.319 120.639 161.386 119.956 162.41 119.188C163.519 118.335 164.586 117.353 165.61 116.244C167.914 113.513 169.066 111.124 169.066 109.076C169.066 107.796 168.682 107.156 167.914 107.156C167.231 107.156 166.335 107.753 165.226 108.948C164.202 110.057 163.221 111.465 162.282 113.172C160.661 116.5 159.637 119.188 159.21 121.236ZM199.494 138.26C190.875 138.26 186.566 131.903 186.566 119.188C186.566 106.729 190.662 93.204 198.854 78.612C206.875 64.1053 214.47 56.852 221.638 56.852C224.198 56.852 225.905 58.6013 226.758 62.1V63.764C226.758 69.908 222.022 80.276 212.55 94.868C208.539 101.183 204.742 106.687 201.158 111.38C197.659 116.073 194.374 120.041 191.302 123.284C192.326 130.964 195.867 134.804 201.926 134.804C205.595 134.804 208.71 133.78 211.27 131.732C213.83 129.599 216.561 126.74 219.462 123.156C219.974 122.644 220.315 122.388 220.486 122.388C220.742 122.388 220.87 122.601 220.87 123.028C220.87 123.625 220.571 124.393 219.974 125.332C216.305 130.025 212.849 133.353 209.606 135.316C206.363 137.279 202.993 138.26 199.494 138.26ZM191.43 120.084C196.038 115.561 202.054 106.601 209.478 93.204C217.329 78.9533 221.254 69.14 221.254 63.764C221.254 61.3747 220.571 60.18 219.206 60.18C213.915 60.18 207.899 67.7747 201.158 82.964C198.001 90.4733 195.569 97.3 193.862 103.444C192.241 109.588 191.43 115.135 191.43 120.084ZM229.425 137.62C226.268 137.62 223.793 136.553 222.001 134.42C220.209 132.201 219.313 129.471 219.313 126.228C219.313 122.217 221.276 117.78 225.201 112.916C229.212 108.137 233.222 105.748 237.233 105.748C240.305 105.748 241.841 106.9 241.841 109.204C241.841 110.057 241.244 111.593 240.049 113.812C238.94 116.116 238.129 117.268 237.617 117.268C237.361 117.268 237.19 116.969 237.105 116.372C237.105 116.031 237.19 115.476 237.361 114.708C237.617 113.94 237.745 113.385 237.745 113.044C237.745 110.911 236.465 109.844 233.905 109.844C231.089 109.844 228.657 111.636 226.609 115.22C224.817 118.377 223.921 121.535 223.921 124.692C223.921 131.007 226.566 134.164 231.857 134.164C236.124 134.164 239.708 133.14 242.609 131.092C245.51 128.959 248.369 126.271 251.185 123.028C251.612 122.601 251.996 122.388 252.337 122.388C252.678 122.388 252.849 122.559 252.849 122.9C252.849 123.241 252.678 123.625 252.337 124.052C252.081 124.479 251.825 124.905 251.569 125.332C250.46 126.783 249.094 128.319 247.473 129.94C245.937 131.561 244.188 132.969 242.225 134.164C239.836 135.529 237.574 136.425 235.441 136.852C233.308 137.364 231.302 137.62 229.425 137.62ZM254.522 139.028C251.365 139.028 249.786 136.724 249.786 132.116C249.786 130.921 249.914 129.599 250.17 128.148C250.426 126.697 250.767 125.161 251.194 123.54C252.047 120.553 253.327 117.183 255.034 113.428C257.594 108.137 259.727 105.492 261.434 105.492C263.055 105.492 264.378 106.388 265.402 108.18C266.085 107.924 266.639 107.796 267.066 107.796C269.455 107.796 270.65 109.588 270.65 113.172C270.65 114.708 270.351 116.5 269.754 118.548C269.157 120.596 268.133 123.156 266.682 126.228C268.815 128.191 270.906 129.172 272.954 129.172C274.575 129.172 276.111 128.788 277.562 128.02C279.013 127.167 280.634 125.545 282.426 123.156C282.597 122.985 282.853 122.9 283.194 122.9C283.45 122.9 283.578 123.156 283.578 123.668C283.578 124.18 283.365 124.735 282.938 125.332C281.829 126.783 280.421 128.105 278.714 129.3C277.093 130.409 275.045 130.964 272.57 130.964C270.095 130.964 267.877 130.111 265.914 128.404C262.671 135.487 258.874 139.028 254.522 139.028ZM265.146 124.564C265.829 123.028 266.341 121.449 266.682 119.828C267.023 118.207 267.194 116.457 267.194 114.58C267.194 111.679 266.341 110.228 264.634 110.228C263.013 110.228 262.202 111.807 262.202 114.964C262.202 116.329 262.501 117.993 263.098 119.956C263.781 121.919 264.463 123.455 265.146 124.564ZM256.826 135.444C258.021 135.444 259.514 134.292 261.306 131.988C262.074 131.049 262.714 130.111 263.226 129.172C263.738 128.148 264.079 127.465 264.25 127.124C262.97 125.673 261.861 124.137 260.922 122.516C259.983 120.895 259.429 119.231 259.258 117.524C258.234 118.377 257.167 120.596 256.058 124.18C254.949 127.764 254.394 130.367 254.394 131.988C254.394 134.292 255.205 135.444 256.826 135.444ZM301.641 138.644C300.873 138.644 300.276 138.004 299.849 136.724V134.292C299.849 123.711 298.484 118.42 295.753 118.42C293.961 118.42 291.23 121.321 287.561 127.124C286.537 128.66 285.513 130.196 284.489 131.732C283.55 133.268 282.612 134.804 281.673 136.34C281.161 136.511 280.777 136.596 280.521 136.596C279.668 136.596 279.241 135.956 279.241 134.676V134.292L280.777 129.172C282.569 123.796 283.892 119.529 284.745 116.372C285.598 113.129 286.025 110.996 286.025 109.972C286.025 109.631 285.982 109.417 285.897 109.332C287.604 107.796 289.225 107.028 290.761 107.028C291.529 107.028 291.828 107.241 291.657 107.668L289.353 120.596C290.206 119.401 291.956 117.908 294.601 116.116C295.966 115.177 297.118 114.495 298.057 114.068C299.081 113.641 299.892 113.428 300.489 113.428C303.134 113.428 304.628 118.761 304.969 129.428C305.908 127.721 307.145 125.588 308.681 123.028C310.302 120.468 312.18 117.524 314.313 114.196C315.508 112.575 316.788 111.764 318.153 111.764C319.433 111.764 320.201 112.575 320.457 114.196C320.713 117.524 320.969 120.639 321.225 123.54C321.481 126.356 322.036 128.617 322.889 130.324C323.742 132.031 325.193 132.927 327.241 133.012C329.801 133.012 332.318 132.073 334.793 130.196C337.353 128.233 339.657 125.887 341.705 123.156C342.132 122.473 342.558 122.132 342.985 122.132C343.241 122.132 343.369 122.473 343.369 123.156C343.369 123.327 343.198 123.711 342.857 124.308C342.516 124.82 342.26 125.161 342.089 125.332C340.638 127.465 338.932 129.556 336.969 131.604C335.092 133.567 333.086 135.188 330.953 136.468C328.82 137.663 326.686 138.26 324.553 138.26C321.396 138.26 319.092 136.553 317.641 133.14C316.19 129.727 315.294 124.905 314.953 118.676C313.161 120.297 311.241 123.199 309.193 127.38C307.913 129.769 306.846 131.775 305.993 133.396C305.14 134.932 304.5 136.041 304.073 136.724C303.22 138.004 302.409 138.644 301.641 138.644ZM354.366 137.748C350.867 137.748 347.838 136.767 345.278 134.804C342.803 132.756 341.566 129.684 341.566 125.588C341.566 121.065 343.059 116.415 346.046 111.636C347.582 109.161 349.459 107.199 351.678 105.748C353.897 104.212 355.859 103.444 357.566 103.444C360.041 103.444 361.278 104.937 361.278 107.924C361.278 110.484 359.571 113.599 356.158 117.268C353.001 120.511 350.014 122.729 347.198 123.924C347.113 124.265 347.027 124.649 346.942 125.076C346.942 125.417 346.942 125.801 346.942 126.228C346.942 131.604 350.142 134.292 356.542 134.292C360.211 134.292 363.625 133.183 366.782 130.964C370.025 128.66 372.841 126.057 375.23 123.156C375.657 122.644 376.041 122.388 376.382 122.388C376.723 122.388 376.894 122.559 376.894 122.9C376.894 123.241 376.723 123.711 376.382 124.308C376.041 124.82 375.785 125.161 375.614 125.332C374.249 127.209 372.798 128.873 371.262 130.324C369.811 131.775 367.849 133.183 365.374 134.548C363.582 135.657 361.705 136.468 359.742 136.98C357.865 137.492 356.073 137.748 354.366 137.748ZM347.71 121.236C348.819 120.639 349.886 119.956 350.91 119.188C352.019 118.335 353.086 117.353 354.11 116.244C356.414 113.513 357.566 111.124 357.566 109.076C357.566 107.796 357.182 107.156 356.414 107.156C355.731 107.156 354.835 107.753 353.726 108.948C352.702 110.057 351.721 111.465 350.782 113.172C349.161 116.5 348.137 119.188 347.71 121.236Z"
                      stroke="white" stroke-width="8" mask="url(#path-1-inside-1_1_10)" class="WKCoMIDn_1"/>
            </g>
        </g>
        <g id="To Jade's" clip-path="url(#clip0_1_10)">
            <g id="Vector_2">
                <mask id="path-2-inside-2_1_10" fill="white">
                    <path d="M159.17 189.342C157.178 189.342 155.63 188.832 154.526 187.812C153.422 186.78 152.87 185.136 152.87 182.88V169.47L153.338 162.36H155.75V182.412C155.75 184.056 156.086 185.208 156.758 185.868C157.442 186.528 158.456 186.858 159.8 186.858C160.16 186.858 160.532 186.834 160.916 186.786C161.3 186.726 161.72 186.648 162.176 186.552V188.982C161.696 189.102 161.204 189.192 160.7 189.252C160.196 189.312 159.686 189.342 159.17 189.342ZM149.198 171.846V169.47H161.888V171.846H149.198ZM172.262 189.342C170.582 189.342 169.118 188.994 167.87 188.298C166.622 187.59 165.656 186.498 164.972 185.022C164.288 183.534 163.946 181.608 163.946 179.244C163.946 176.904 164.282 174.99 164.954 173.502C165.638 172.014 166.604 170.922 167.852 170.226C169.1 169.518 170.57 169.164 172.262 169.164C173.954 169.164 175.424 169.518 176.672 170.226C177.92 170.922 178.88 172.014 179.552 173.502C180.236 174.978 180.578 176.892 180.578 179.244C180.578 181.584 180.23 183.498 179.534 184.986C178.85 186.474 177.884 187.572 176.636 188.28C175.4 188.988 173.942 189.342 172.262 189.342ZM172.262 187.002C173.366 187.002 174.32 186.762 175.124 186.282C175.928 185.802 176.546 185.004 176.978 183.888C177.422 182.76 177.644 181.23 177.644 179.298C177.644 177.33 177.422 175.782 176.978 174.654C176.546 173.514 175.922 172.71 175.106 172.242C174.302 171.762 173.354 171.522 172.262 171.522C171.158 171.522 170.204 171.762 169.4 172.242C168.596 172.71 167.972 173.508 167.528 174.636C167.096 175.752 166.88 177.276 166.88 179.208C166.88 181.164 167.096 182.712 167.528 183.852C167.972 184.98 168.596 185.79 169.4 186.282C170.204 186.762 171.158 187.002 172.262 187.002ZM192.811 195.192L190.885 193.878C191.641 192.834 192.253 191.814 192.721 190.818C193.201 189.834 193.549 188.778 193.765 187.65C193.993 186.522 194.107 185.226 194.107 183.762V162.36H197.005V184.14C197.005 185.604 196.861 186.942 196.573 188.154C196.297 189.354 195.847 190.518 195.223 191.646C194.611 192.786 193.807 193.968 192.811 195.192ZM207.642 189.324C205.806 189.324 204.36 188.85 203.304 187.902C202.26 186.954 201.738 185.652 201.738 183.996C201.738 182.292 202.296 180.966 203.412 180.018C204.54 179.058 206.346 178.458 208.83 178.218L214.068 177.66L214.338 179.568L209.01 180.144C207.462 180.3 206.346 180.678 205.662 181.278C204.99 181.866 204.654 182.682 204.654 183.726C204.654 184.818 204.966 185.652 205.59 186.228C206.214 186.804 207.144 187.092 208.38 187.092C209.232 187.092 210.09 186.912 210.954 186.552C211.818 186.18 212.592 185.562 213.276 184.698V176.076C213.276 174.876 213.09 173.952 212.718 173.304C212.346 172.644 211.788 172.182 211.044 171.918C210.3 171.654 209.364 171.522 208.236 171.522C207.504 171.522 206.67 171.588 205.734 171.72C204.81 171.852 203.886 172.074 202.962 172.386V170.028C203.802 169.752 204.726 169.542 205.734 169.398C206.754 169.242 207.714 169.164 208.614 169.164C210.27 169.164 211.65 169.38 212.754 169.812C213.87 170.244 214.704 170.976 215.256 172.008C215.82 173.028 216.102 174.426 216.102 176.202V189H213.69L213.474 186.822H213.294C212.658 187.626 211.842 188.244 210.846 188.676C209.862 189.108 208.794 189.324 207.642 189.324ZM227.987 189.342C226.571 189.342 225.281 189.024 224.117 188.388C222.953 187.74 222.023 186.708 221.327 185.292C220.643 183.876 220.301 181.992 220.301 179.64C220.301 177.288 220.673 175.338 221.417 173.79C222.173 172.242 223.283 171.084 224.747 170.316C226.211 169.548 228.011 169.164 230.147 169.164C230.699 169.164 231.251 169.188 231.803 169.236C232.355 169.284 232.865 169.344 233.333 169.416V159.912H236.213V189H233.765L233.567 186.894H233.369C232.793 187.602 232.043 188.19 231.119 188.658C230.207 189.114 229.163 189.342 227.987 189.342ZM228.635 186.858C229.511 186.858 230.369 186.666 231.209 186.282C232.049 185.898 232.757 185.286 233.333 184.446V171.864C232.901 171.756 232.397 171.672 231.821 171.612C231.245 171.552 230.675 171.522 230.111 171.522C227.843 171.522 226.127 172.134 224.963 173.358C223.811 174.582 223.235 176.592 223.235 179.388C223.235 181.308 223.463 182.814 223.919 183.906C224.387 184.986 225.023 185.748 225.827 186.192C226.643 186.636 227.579 186.858 228.635 186.858ZM249.874 189.342C247.846 189.342 246.142 189 244.762 188.316C243.394 187.62 242.362 186.534 241.666 185.058C240.97 183.57 240.622 181.626 240.622 179.226C240.622 176.934 240.94 175.044 241.576 173.556C242.224 172.068 243.136 170.964 244.312 170.244C245.5 169.524 246.904 169.164 248.524 169.164C250.12 169.164 251.476 169.53 252.592 170.262C253.72 170.982 254.578 172.092 255.166 173.592C255.754 175.08 256.048 176.982 256.048 179.298V180.18H242.188V178.218H253.924L253.294 178.65C253.294 176.826 253.102 175.374 252.718 174.294C252.346 173.214 251.8 172.44 251.08 171.972C250.372 171.492 249.508 171.252 248.488 171.252C247.48 171.252 246.604 171.486 245.86 171.954C245.116 172.422 244.54 173.196 244.132 174.276C243.736 175.356 243.538 176.814 243.538 178.65V179.658C243.538 181.458 243.778 182.898 244.258 183.978C244.75 185.046 245.488 185.82 246.472 186.3C247.456 186.768 248.704 187.002 250.216 187.002C250.96 187.002 251.728 186.936 252.52 186.804C253.324 186.66 254.176 186.462 255.076 186.21V188.568C254.14 188.832 253.246 189.024 252.394 189.144C251.554 189.276 250.714 189.342 249.874 189.342ZM258.083 169.128C258.503 168 258.833 166.956 259.073 165.996C259.313 165.024 259.433 164.04 259.433 163.044L259.937 163.674H259.541C258.917 163.674 258.413 163.494 258.029 163.134C257.657 162.762 257.471 162.276 257.471 161.676C257.471 161.064 257.651 160.578 258.011 160.218C258.371 159.858 258.863 159.678 259.487 159.678C260.147 159.678 260.663 159.894 261.035 160.326C261.407 160.746 261.593 161.406 261.593 162.306C261.593 163.554 261.425 164.766 261.089 165.942C260.753 167.106 260.321 168.168 259.793 169.128H258.083ZM270.568 189.342C269.584 189.342 268.642 189.276 267.742 189.144C266.854 189.012 265.99 188.814 265.15 188.55V186.246C266.11 186.534 267.028 186.744 267.904 186.876C268.78 186.996 269.668 187.056 270.568 187.056C272.26 187.056 273.484 186.768 274.24 186.192C275.008 185.616 275.392 184.806 275.392 183.762C275.392 182.874 275.164 182.196 274.708 181.728C274.252 181.248 273.478 180.894 272.386 180.666L269.74 180.126C267.964 179.742 266.692 179.112 265.924 178.236C265.168 177.348 264.79 176.208 264.79 174.816C264.79 173.172 265.42 171.822 266.68 170.766C267.952 169.698 269.902 169.164 272.53 169.164C273.37 169.164 274.168 169.212 274.924 169.308C275.692 169.404 276.43 169.548 277.138 169.74V172.062C276.346 171.846 275.584 171.69 274.852 171.594C274.132 171.498 273.376 171.45 272.584 171.45C271.348 171.45 270.358 171.6 269.614 171.9C268.882 172.188 268.354 172.584 268.03 173.088C267.706 173.58 267.544 174.132 267.544 174.744C267.544 175.512 267.76 176.148 268.192 176.652C268.624 177.156 269.38 177.528 270.46 177.768L273.105 178.308C274.906 178.68 276.196 179.292 276.976 180.144C277.768 180.996 278.164 182.154 278.164 183.618C278.164 185.382 277.516 186.78 276.22 187.812C274.936 188.832 273.052 189.342 270.568 189.342Z"
                          class="WKCoMIDn_2"/>
                </mask>
                <path d="M159.17 189.342C157.178 189.342 155.63 188.832 154.526 187.812C153.422 186.78 152.87 185.136 152.87 182.88V169.47L153.338 162.36H155.75V182.412C155.75 184.056 156.086 185.208 156.758 185.868C157.442 186.528 158.456 186.858 159.8 186.858C160.16 186.858 160.532 186.834 160.916 186.786C161.3 186.726 161.72 186.648 162.176 186.552V188.982C161.696 189.102 161.204 189.192 160.7 189.252C160.196 189.312 159.686 189.342 159.17 189.342ZM149.198 171.846V169.47H161.888V171.846H149.198ZM172.262 189.342C170.582 189.342 169.118 188.994 167.87 188.298C166.622 187.59 165.656 186.498 164.972 185.022C164.288 183.534 163.946 181.608 163.946 179.244C163.946 176.904 164.282 174.99 164.954 173.502C165.638 172.014 166.604 170.922 167.852 170.226C169.1 169.518 170.57 169.164 172.262 169.164C173.954 169.164 175.424 169.518 176.672 170.226C177.92 170.922 178.88 172.014 179.552 173.502C180.236 174.978 180.578 176.892 180.578 179.244C180.578 181.584 180.23 183.498 179.534 184.986C178.85 186.474 177.884 187.572 176.636 188.28C175.4 188.988 173.942 189.342 172.262 189.342ZM172.262 187.002C173.366 187.002 174.32 186.762 175.124 186.282C175.928 185.802 176.546 185.004 176.978 183.888C177.422 182.76 177.644 181.23 177.644 179.298C177.644 177.33 177.422 175.782 176.978 174.654C176.546 173.514 175.922 172.71 175.106 172.242C174.302 171.762 173.354 171.522 172.262 171.522C171.158 171.522 170.204 171.762 169.4 172.242C168.596 172.71 167.972 173.508 167.528 174.636C167.096 175.752 166.88 177.276 166.88 179.208C166.88 181.164 167.096 182.712 167.528 183.852C167.972 184.98 168.596 185.79 169.4 186.282C170.204 186.762 171.158 187.002 172.262 187.002ZM192.811 195.192L190.885 193.878C191.641 192.834 192.253 191.814 192.721 190.818C193.201 189.834 193.549 188.778 193.765 187.65C193.993 186.522 194.107 185.226 194.107 183.762V162.36H197.005V184.14C197.005 185.604 196.861 186.942 196.573 188.154C196.297 189.354 195.847 190.518 195.223 191.646C194.611 192.786 193.807 193.968 192.811 195.192ZM207.642 189.324C205.806 189.324 204.36 188.85 203.304 187.902C202.26 186.954 201.738 185.652 201.738 183.996C201.738 182.292 202.296 180.966 203.412 180.018C204.54 179.058 206.346 178.458 208.83 178.218L214.068 177.66L214.338 179.568L209.01 180.144C207.462 180.3 206.346 180.678 205.662 181.278C204.99 181.866 204.654 182.682 204.654 183.726C204.654 184.818 204.966 185.652 205.59 186.228C206.214 186.804 207.144 187.092 208.38 187.092C209.232 187.092 210.09 186.912 210.954 186.552C211.818 186.18 212.592 185.562 213.276 184.698V176.076C213.276 174.876 213.09 173.952 212.718 173.304C212.346 172.644 211.788 172.182 211.044 171.918C210.3 171.654 209.364 171.522 208.236 171.522C207.504 171.522 206.67 171.588 205.734 171.72C204.81 171.852 203.886 172.074 202.962 172.386V170.028C203.802 169.752 204.726 169.542 205.734 169.398C206.754 169.242 207.714 169.164 208.614 169.164C210.27 169.164 211.65 169.38 212.754 169.812C213.87 170.244 214.704 170.976 215.256 172.008C215.82 173.028 216.102 174.426 216.102 176.202V189H213.69L213.474 186.822H213.294C212.658 187.626 211.842 188.244 210.846 188.676C209.862 189.108 208.794 189.324 207.642 189.324ZM227.987 189.342C226.571 189.342 225.281 189.024 224.117 188.388C222.953 187.74 222.023 186.708 221.327 185.292C220.643 183.876 220.301 181.992 220.301 179.64C220.301 177.288 220.673 175.338 221.417 173.79C222.173 172.242 223.283 171.084 224.747 170.316C226.211 169.548 228.011 169.164 230.147 169.164C230.699 169.164 231.251 169.188 231.803 169.236C232.355 169.284 232.865 169.344 233.333 169.416V159.912H236.213V189H233.765L233.567 186.894H233.369C232.793 187.602 232.043 188.19 231.119 188.658C230.207 189.114 229.163 189.342 227.987 189.342ZM228.635 186.858C229.511 186.858 230.369 186.666 231.209 186.282C232.049 185.898 232.757 185.286 233.333 184.446V171.864C232.901 171.756 232.397 171.672 231.821 171.612C231.245 171.552 230.675 171.522 230.111 171.522C227.843 171.522 226.127 172.134 224.963 173.358C223.811 174.582 223.235 176.592 223.235 179.388C223.235 181.308 223.463 182.814 223.919 183.906C224.387 184.986 225.023 185.748 225.827 186.192C226.643 186.636 227.579 186.858 228.635 186.858ZM249.874 189.342C247.846 189.342 246.142 189 244.762 188.316C243.394 187.62 242.362 186.534 241.666 185.058C240.97 183.57 240.622 181.626 240.622 179.226C240.622 176.934 240.94 175.044 241.576 173.556C242.224 172.068 243.136 170.964 244.312 170.244C245.5 169.524 246.904 169.164 248.524 169.164C250.12 169.164 251.476 169.53 252.592 170.262C253.72 170.982 254.578 172.092 255.166 173.592C255.754 175.08 256.048 176.982 256.048 179.298V180.18H242.188V178.218H253.924L253.294 178.65C253.294 176.826 253.102 175.374 252.718 174.294C252.346 173.214 251.8 172.44 251.08 171.972C250.372 171.492 249.508 171.252 248.488 171.252C247.48 171.252 246.604 171.486 245.86 171.954C245.116 172.422 244.54 173.196 244.132 174.276C243.736 175.356 243.538 176.814 243.538 178.65V179.658C243.538 181.458 243.778 182.898 244.258 183.978C244.75 185.046 245.488 185.82 246.472 186.3C247.456 186.768 248.704 187.002 250.216 187.002C250.96 187.002 251.728 186.936 252.52 186.804C253.324 186.66 254.176 186.462 255.076 186.21V188.568C254.14 188.832 253.246 189.024 252.394 189.144C251.554 189.276 250.714 189.342 249.874 189.342ZM258.083 169.128C258.503 168 258.833 166.956 259.073 165.996C259.313 165.024 259.433 164.04 259.433 163.044L259.937 163.674H259.541C258.917 163.674 258.413 163.494 258.029 163.134C257.657 162.762 257.471 162.276 257.471 161.676C257.471 161.064 257.651 160.578 258.011 160.218C258.371 159.858 258.863 159.678 259.487 159.678C260.147 159.678 260.663 159.894 261.035 160.326C261.407 160.746 261.593 161.406 261.593 162.306C261.593 163.554 261.425 164.766 261.089 165.942C260.753 167.106 260.321 168.168 259.793 169.128H258.083ZM270.568 189.342C269.584 189.342 268.642 189.276 267.742 189.144C266.854 189.012 265.99 188.814 265.15 188.55V186.246C266.11 186.534 267.028 186.744 267.904 186.876C268.78 186.996 269.668 187.056 270.568 187.056C272.26 187.056 273.484 186.768 274.24 186.192C275.008 185.616 275.392 184.806 275.392 183.762C275.392 182.874 275.164 182.196 274.708 181.728C274.252 181.248 273.478 180.894 272.386 180.666L269.74 180.126C267.964 179.742 266.692 179.112 265.924 178.236C265.168 177.348 264.79 176.208 264.79 174.816C264.79 173.172 265.42 171.822 266.68 170.766C267.952 169.698 269.902 169.164 272.53 169.164C273.37 169.164 274.168 169.212 274.924 169.308C275.692 169.404 276.43 169.548 277.138 169.74V172.062C276.346 171.846 275.584 171.69 274.852 171.594C274.132 171.498 273.376 171.45 272.584 171.45C271.348 171.45 270.358 171.6 269.614 171.9C268.882 172.188 268.354 172.584 268.03 173.088C267.706 173.58 267.544 174.132 267.544 174.744C267.544 175.512 267.76 176.148 268.192 176.652C268.624 177.156 269.38 177.528 270.46 177.768L273.105 178.308C274.906 178.68 276.196 179.292 276.976 180.144C277.768 180.996 278.164 182.154 278.164 183.618C278.164 185.382 277.516 186.78 276.22 187.812C274.936 188.832 273.052 189.342 270.568 189.342Z"
                      stroke="white" stroke-width="4" mask="url(#path-2-inside-2_1_10)" class="WKCoMIDn_3"/>
            </g>
        </g>
        <g id="Technical Showcase" clip-path="url(#clip1_1_10)">
            <g id="Vector_3">
                <mask id="path-3-inside-3_1_10" fill="white">
                    <path d="M117.96 240V207.888H105.408V204.48H134.52V207.888H121.968V240H117.96ZM136.345 240V211.44H156.745V214.512H140.281V236.928H156.961V240H136.345ZM138.601 226.896V223.848H154.705V226.896H138.601ZM176.001 240.36C172.945 240.36 170.297 239.872 168.057 238.896C165.817 237.92 164.081 236.368 162.849 234.24C161.617 232.096 161.001 229.272 161.001 225.768C161.001 222.424 161.609 219.672 162.825 217.512C164.041 215.336 165.793 213.72 168.081 212.664C170.369 211.608 173.121 211.08 176.337 211.08C177.601 211.08 178.809 211.152 179.961 211.296C181.129 211.424 182.273 211.632 183.393 211.92V215.232C182.289 214.96 181.169 214.752 180.033 214.608C178.897 214.464 177.737 214.392 176.553 214.392C174.089 214.392 172.009 214.776 170.313 215.544C168.633 216.312 167.361 217.528 166.497 219.192C165.649 220.856 165.225 223.032 165.225 225.72C165.225 228.52 165.657 230.752 166.521 232.416C167.401 234.064 168.665 235.248 170.313 235.968C171.961 236.688 173.945 237.048 176.265 237.048C177.497 237.048 178.673 236.968 179.793 236.808C180.929 236.632 182.129 236.352 183.393 235.968V239.28C182.289 239.632 181.113 239.896 179.865 240.072C178.633 240.264 177.345 240.36 176.001 240.36ZM188.986 240V211.44H192.994V223.656H209.602V211.44H213.61V240H209.602V227.04H192.994V240H188.986ZM222.408 240V211.44H226.44L244.56 235.536H243.792V211.44H247.536V240H243.48L225.36 215.904H226.176V240H222.408ZM256.298 240V211.44H260.306V240H256.298ZM282.079 240.36C279.023 240.36 276.375 239.872 274.135 238.896C271.895 237.92 270.159 236.368 268.927 234.24C267.695 232.096 267.079 229.272 267.079 225.768C267.079 222.424 267.687 219.672 268.903 217.512C270.119 215.336 271.871 213.72 274.159 212.664C276.447 211.608 279.199 211.08 282.415 211.08C283.679 211.08 284.887 211.152 286.039 211.296C287.207 211.424 288.351 211.632 289.471 211.92V215.232C288.367 214.96 287.247 214.752 286.111 214.608C284.975 214.464 283.815 214.392 282.631 214.392C280.167 214.392 278.087 214.776 276.391 215.544C274.711 216.312 273.439 217.528 272.575 219.192C271.727 220.856 271.303 223.032 271.303 225.72C271.303 228.52 271.735 230.752 272.599 232.416C273.479 234.064 274.743 235.248 276.391 235.968C278.039 236.688 280.023 237.048 282.343 237.048C283.575 237.048 284.751 236.968 285.871 236.808C287.007 236.632 288.207 236.352 289.471 235.968V239.28C288.367 239.632 287.191 239.896 285.943 240.072C284.711 240.264 283.423 240.36 282.079 240.36ZM291.536 240L302.96 211.44H308.624L320.072 240H316.04L305.48 213.096H306.056L295.52 240H291.536ZM297.968 231.096L298.928 228.024H312.656L313.592 231.096H297.968ZM325.345 240V211.44H329.353V236.784H345.169V240H325.345ZM370.125 240.456C368.573 240.456 366.981 240.328 365.349 240.072C363.717 239.816 362.165 239.44 360.693 238.944V235.536C361.765 235.888 362.845 236.184 363.933 236.424C365.037 236.648 366.117 236.816 367.173 236.928C368.229 237.024 369.237 237.072 370.197 237.072C373.333 237.072 375.645 236.512 377.133 235.392C378.621 234.272 379.365 232.656 379.365 230.544C379.365 228.736 378.797 227.368 377.661 226.44C376.525 225.496 374.597 224.72 371.877 224.112L369.837 223.632C366.509 222.896 364.053 221.744 362.469 220.176C360.901 218.608 360.117 216.528 360.117 213.936C360.117 210.864 361.221 208.448 363.429 206.688C365.653 204.912 368.981 204.024 373.413 204.024C374.917 204.024 376.389 204.128 377.829 204.336C379.269 204.528 380.605 204.816 381.837 205.2V208.608C380.525 208.208 379.157 207.912 377.733 207.72C376.309 207.512 374.885 207.408 373.461 207.408C371.317 207.408 369.557 207.656 368.181 208.152C366.821 208.648 365.813 209.376 365.157 210.336C364.501 211.28 364.173 212.416 364.173 213.744C364.173 215.504 364.685 216.864 365.709 217.824C366.733 218.768 368.517 219.536 371.061 220.128L373.101 220.584C375.533 221.112 377.501 221.808 379.005 222.672C380.525 223.536 381.637 224.6 382.341 225.864C383.061 227.128 383.421 228.616 383.421 230.328C383.421 232.472 382.901 234.304 381.861 235.824C380.821 237.328 379.309 238.48 377.325 239.28C375.341 240.064 372.941 240.456 370.125 240.456ZM390.408 240V211.44H394.416V223.656H411.024V211.44H415.032V240H411.024V227.04H394.416V240H390.408ZM435.59 240.36C432.838 240.36 430.43 239.84 428.366 238.8C426.302 237.744 424.694 236.136 423.542 233.976C422.39 231.816 421.814 229.072 421.814 225.744C421.814 222.4 422.39 219.648 423.542 217.488C424.694 215.312 426.302 213.704 428.366 212.664C430.446 211.608 432.854 211.08 435.59 211.08C438.358 211.08 440.774 211.608 442.838 212.664C444.918 213.704 446.526 215.312 447.661 217.488C448.814 219.648 449.39 222.4 449.39 225.744C449.39 229.072 448.814 231.816 447.661 233.976C446.51 236.136 444.894 237.744 442.814 238.8C440.75 239.84 438.342 240.36 435.59 240.36ZM435.59 237.144C437.558 237.144 439.27 236.768 440.726 236.016C442.182 235.248 443.31 234.032 444.109 232.368C444.91 230.704 445.31 228.52 445.31 225.816C445.31 223.048 444.902 220.816 444.086 219.12C443.286 217.424 442.158 216.2 440.702 215.448C439.246 214.68 437.542 214.296 435.59 214.296C433.654 214.296 431.958 214.672 430.502 215.424C429.062 216.176 427.942 217.384 427.142 219.048C426.342 220.712 425.942 222.904 425.942 225.624C425.942 228.408 426.334 230.648 427.118 232.344C427.918 234.024 429.038 235.248 430.478 236.016C431.934 236.768 433.638 237.144 435.59 237.144ZM461.544 240L452.472 211.44H456.528L464.856 238.104H463.896L472.488 211.44H477.12L485.544 238.104H484.752L493.128 211.44H496.944L487.896 240H482.688L474.216 213.6H475.296L466.728 240H461.544ZM514.626 240.36C511.57 240.36 508.922 239.872 506.682 238.896C504.442 237.92 502.706 236.368 501.474 234.24C500.242 232.096 499.626 229.272 499.626 225.768C499.626 222.424 500.234 219.672 501.45 217.512C502.666 215.336 504.418 213.72 506.706 212.664C508.994 211.608 511.746 211.08 514.962 211.08C516.226 211.08 517.434 211.152 518.586 211.296C519.754 211.424 520.898 211.632 522.018 211.92V215.232C520.914 214.96 519.794 214.752 518.658 214.608C517.522 214.464 516.362 214.392 515.178 214.392C512.714 214.392 510.634 214.776 508.938 215.544C507.258 216.312 505.986 217.528 505.122 219.192C504.274 220.856 503.85 223.032 503.85 225.72C503.85 228.52 504.282 230.752 505.146 232.416C506.026 234.064 507.29 235.248 508.938 235.968C510.586 236.688 512.57 237.048 514.89 237.048C516.122 237.048 517.298 236.968 518.418 236.808C519.554 236.632 520.754 236.352 522.018 235.968V239.28C520.914 239.632 519.738 239.896 518.49 240.072C517.258 240.264 515.97 240.36 514.626 240.36ZM524.083 240L535.507 211.44H541.171L552.619 240H548.587L538.027 213.096H538.603L528.067 240H524.083ZM530.515 231.096L531.475 228.024H545.203L546.139 231.096H530.515ZM563.339 240.36C561.979 240.36 560.579 240.256 559.139 240.048C557.715 239.856 556.379 239.568 555.131 239.184V235.92C556.075 236.208 557.027 236.448 557.987 236.64C558.947 236.816 559.883 236.952 560.795 237.048C561.723 237.128 562.571 237.168 563.339 237.168C565.147 237.168 566.619 236.984 567.755 236.616C568.891 236.232 569.715 235.68 570.227 234.96C570.755 234.224 571.019 233.336 571.019 232.296C571.019 231.416 570.835 230.68 570.467 230.088C570.099 229.48 569.467 228.968 568.571 228.552C567.691 228.136 566.459 227.768 564.875 227.448L563.315 227.136C560.195 226.512 557.963 225.568 556.619 224.304C555.275 223.024 554.603 221.32 554.603 219.192C554.603 217.608 555.011 216.208 555.827 214.992C556.659 213.776 557.939 212.824 559.667 212.136C561.411 211.432 563.635 211.08 566.339 211.08C567.603 211.08 568.851 211.16 570.083 211.32C571.331 211.464 572.475 211.68 573.515 211.968V215.232C572.347 214.896 571.155 214.648 569.939 214.488C568.739 214.328 567.531 214.248 566.315 214.248C564.443 214.248 562.931 214.44 561.779 214.824C560.643 215.208 559.811 215.76 559.283 216.48C558.771 217.184 558.515 218.032 558.515 219.024C558.515 220.352 558.923 221.384 559.739 222.12C560.571 222.84 562.123 223.432 564.395 223.896L565.955 224.208C568.131 224.64 569.875 225.2 571.187 225.888C572.499 226.576 573.451 227.432 574.043 228.456C574.635 229.48 574.931 230.696 574.931 232.104C574.931 233.768 574.499 235.216 573.635 236.448C572.771 237.68 571.483 238.64 569.771 239.328C568.059 240.016 565.915 240.36 563.339 240.36ZM581.376 240V211.44H601.776V214.512H585.312V236.928H601.992V240H581.376ZM583.632 226.896V223.848H599.736V226.896H583.632ZM609.213 231.072L608.373 217.992V204.48H612.549V217.992L611.733 231.072H609.213ZM610.461 240.312C609.613 240.312 608.925 240.08 608.397 239.616C607.885 239.152 607.629 238.528 607.629 237.744C607.629 236.944 607.885 236.312 608.397 235.848C608.909 235.368 609.597 235.128 610.461 235.128C611.325 235.128 612.013 235.368 612.525 235.848C613.037 236.328 613.293 236.96 613.293 237.744C613.293 238.512 613.029 239.136 612.501 239.616C611.989 240.08 611.309 240.312 610.461 240.312Z"
                          class="WKCoMIDn_4"/>
                </mask>
                <path d="M117.96 240V207.888H105.408V204.48H134.52V207.888H121.968V240H117.96ZM136.345 240V211.44H156.745V214.512H140.281V236.928H156.961V240H136.345ZM138.601 226.896V223.848H154.705V226.896H138.601ZM176.001 240.36C172.945 240.36 170.297 239.872 168.057 238.896C165.817 237.92 164.081 236.368 162.849 234.24C161.617 232.096 161.001 229.272 161.001 225.768C161.001 222.424 161.609 219.672 162.825 217.512C164.041 215.336 165.793 213.72 168.081 212.664C170.369 211.608 173.121 211.08 176.337 211.08C177.601 211.08 178.809 211.152 179.961 211.296C181.129 211.424 182.273 211.632 183.393 211.92V215.232C182.289 214.96 181.169 214.752 180.033 214.608C178.897 214.464 177.737 214.392 176.553 214.392C174.089 214.392 172.009 214.776 170.313 215.544C168.633 216.312 167.361 217.528 166.497 219.192C165.649 220.856 165.225 223.032 165.225 225.72C165.225 228.52 165.657 230.752 166.521 232.416C167.401 234.064 168.665 235.248 170.313 235.968C171.961 236.688 173.945 237.048 176.265 237.048C177.497 237.048 178.673 236.968 179.793 236.808C180.929 236.632 182.129 236.352 183.393 235.968V239.28C182.289 239.632 181.113 239.896 179.865 240.072C178.633 240.264 177.345 240.36 176.001 240.36ZM188.986 240V211.44H192.994V223.656H209.602V211.44H213.61V240H209.602V227.04H192.994V240H188.986ZM222.408 240V211.44H226.44L244.56 235.536H243.792V211.44H247.536V240H243.48L225.36 215.904H226.176V240H222.408ZM256.298 240V211.44H260.306V240H256.298ZM282.079 240.36C279.023 240.36 276.375 239.872 274.135 238.896C271.895 237.92 270.159 236.368 268.927 234.24C267.695 232.096 267.079 229.272 267.079 225.768C267.079 222.424 267.687 219.672 268.903 217.512C270.119 215.336 271.871 213.72 274.159 212.664C276.447 211.608 279.199 211.08 282.415 211.08C283.679 211.08 284.887 211.152 286.039 211.296C287.207 211.424 288.351 211.632 289.471 211.92V215.232C288.367 214.96 287.247 214.752 286.111 214.608C284.975 214.464 283.815 214.392 282.631 214.392C280.167 214.392 278.087 214.776 276.391 215.544C274.711 216.312 273.439 217.528 272.575 219.192C271.727 220.856 271.303 223.032 271.303 225.72C271.303 228.52 271.735 230.752 272.599 232.416C273.479 234.064 274.743 235.248 276.391 235.968C278.039 236.688 280.023 237.048 282.343 237.048C283.575 237.048 284.751 236.968 285.871 236.808C287.007 236.632 288.207 236.352 289.471 235.968V239.28C288.367 239.632 287.191 239.896 285.943 240.072C284.711 240.264 283.423 240.36 282.079 240.36ZM291.536 240L302.96 211.44H308.624L320.072 240H316.04L305.48 213.096H306.056L295.52 240H291.536ZM297.968 231.096L298.928 228.024H312.656L313.592 231.096H297.968ZM325.345 240V211.44H329.353V236.784H345.169V240H325.345ZM370.125 240.456C368.573 240.456 366.981 240.328 365.349 240.072C363.717 239.816 362.165 239.44 360.693 238.944V235.536C361.765 235.888 362.845 236.184 363.933 236.424C365.037 236.648 366.117 236.816 367.173 236.928C368.229 237.024 369.237 237.072 370.197 237.072C373.333 237.072 375.645 236.512 377.133 235.392C378.621 234.272 379.365 232.656 379.365 230.544C379.365 228.736 378.797 227.368 377.661 226.44C376.525 225.496 374.597 224.72 371.877 224.112L369.837 223.632C366.509 222.896 364.053 221.744 362.469 220.176C360.901 218.608 360.117 216.528 360.117 213.936C360.117 210.864 361.221 208.448 363.429 206.688C365.653 204.912 368.981 204.024 373.413 204.024C374.917 204.024 376.389 204.128 377.829 204.336C379.269 204.528 380.605 204.816 381.837 205.2V208.608C380.525 208.208 379.157 207.912 377.733 207.72C376.309 207.512 374.885 207.408 373.461 207.408C371.317 207.408 369.557 207.656 368.181 208.152C366.821 208.648 365.813 209.376 365.157 210.336C364.501 211.28 364.173 212.416 364.173 213.744C364.173 215.504 364.685 216.864 365.709 217.824C366.733 218.768 368.517 219.536 371.061 220.128L373.101 220.584C375.533 221.112 377.501 221.808 379.005 222.672C380.525 223.536 381.637 224.6 382.341 225.864C383.061 227.128 383.421 228.616 383.421 230.328C383.421 232.472 382.901 234.304 381.861 235.824C380.821 237.328 379.309 238.48 377.325 239.28C375.341 240.064 372.941 240.456 370.125 240.456ZM390.408 240V211.44H394.416V223.656H411.024V211.44H415.032V240H411.024V227.04H394.416V240H390.408ZM435.59 240.36C432.838 240.36 430.43 239.84 428.366 238.8C426.302 237.744 424.694 236.136 423.542 233.976C422.39 231.816 421.814 229.072 421.814 225.744C421.814 222.4 422.39 219.648 423.542 217.488C424.694 215.312 426.302 213.704 428.366 212.664C430.446 211.608 432.854 211.08 435.59 211.08C438.358 211.08 440.774 211.608 442.838 212.664C444.918 213.704 446.526 215.312 447.661 217.488C448.814 219.648 449.39 222.4 449.39 225.744C449.39 229.072 448.814 231.816 447.661 233.976C446.51 236.136 444.894 237.744 442.814 238.8C440.75 239.84 438.342 240.36 435.59 240.36ZM435.59 237.144C437.558 237.144 439.27 236.768 440.726 236.016C442.182 235.248 443.31 234.032 444.109 232.368C444.91 230.704 445.31 228.52 445.31 225.816C445.31 223.048 444.902 220.816 444.086 219.12C443.286 217.424 442.158 216.2 440.702 215.448C439.246 214.68 437.542 214.296 435.59 214.296C433.654 214.296 431.958 214.672 430.502 215.424C429.062 216.176 427.942 217.384 427.142 219.048C426.342 220.712 425.942 222.904 425.942 225.624C425.942 228.408 426.334 230.648 427.118 232.344C427.918 234.024 429.038 235.248 430.478 236.016C431.934 236.768 433.638 237.144 435.59 237.144ZM461.544 240L452.472 211.44H456.528L464.856 238.104H463.896L472.488 211.44H477.12L485.544 238.104H484.752L493.128 211.44H496.944L487.896 240H482.688L474.216 213.6H475.296L466.728 240H461.544ZM514.626 240.36C511.57 240.36 508.922 239.872 506.682 238.896C504.442 237.92 502.706 236.368 501.474 234.24C500.242 232.096 499.626 229.272 499.626 225.768C499.626 222.424 500.234 219.672 501.45 217.512C502.666 215.336 504.418 213.72 506.706 212.664C508.994 211.608 511.746 211.08 514.962 211.08C516.226 211.08 517.434 211.152 518.586 211.296C519.754 211.424 520.898 211.632 522.018 211.92V215.232C520.914 214.96 519.794 214.752 518.658 214.608C517.522 214.464 516.362 214.392 515.178 214.392C512.714 214.392 510.634 214.776 508.938 215.544C507.258 216.312 505.986 217.528 505.122 219.192C504.274 220.856 503.85 223.032 503.85 225.72C503.85 228.52 504.282 230.752 505.146 232.416C506.026 234.064 507.29 235.248 508.938 235.968C510.586 236.688 512.57 237.048 514.89 237.048C516.122 237.048 517.298 236.968 518.418 236.808C519.554 236.632 520.754 236.352 522.018 235.968V239.28C520.914 239.632 519.738 239.896 518.49 240.072C517.258 240.264 515.97 240.36 514.626 240.36ZM524.083 240L535.507 211.44H541.171L552.619 240H548.587L538.027 213.096H538.603L528.067 240H524.083ZM530.515 231.096L531.475 228.024H545.203L546.139 231.096H530.515ZM563.339 240.36C561.979 240.36 560.579 240.256 559.139 240.048C557.715 239.856 556.379 239.568 555.131 239.184V235.92C556.075 236.208 557.027 236.448 557.987 236.64C558.947 236.816 559.883 236.952 560.795 237.048C561.723 237.128 562.571 237.168 563.339 237.168C565.147 237.168 566.619 236.984 567.755 236.616C568.891 236.232 569.715 235.68 570.227 234.96C570.755 234.224 571.019 233.336 571.019 232.296C571.019 231.416 570.835 230.68 570.467 230.088C570.099 229.48 569.467 228.968 568.571 228.552C567.691 228.136 566.459 227.768 564.875 227.448L563.315 227.136C560.195 226.512 557.963 225.568 556.619 224.304C555.275 223.024 554.603 221.32 554.603 219.192C554.603 217.608 555.011 216.208 555.827 214.992C556.659 213.776 557.939 212.824 559.667 212.136C561.411 211.432 563.635 211.08 566.339 211.08C567.603 211.08 568.851 211.16 570.083 211.32C571.331 211.464 572.475 211.68 573.515 211.968V215.232C572.347 214.896 571.155 214.648 569.939 214.488C568.739 214.328 567.531 214.248 566.315 214.248C564.443 214.248 562.931 214.44 561.779 214.824C560.643 215.208 559.811 215.76 559.283 216.48C558.771 217.184 558.515 218.032 558.515 219.024C558.515 220.352 558.923 221.384 559.739 222.12C560.571 222.84 562.123 223.432 564.395 223.896L565.955 224.208C568.131 224.64 569.875 225.2 571.187 225.888C572.499 226.576 573.451 227.432 574.043 228.456C574.635 229.48 574.931 230.696 574.931 232.104C574.931 233.768 574.499 235.216 573.635 236.448C572.771 237.68 571.483 238.64 569.771 239.328C568.059 240.016 565.915 240.36 563.339 240.36ZM581.376 240V211.44H601.776V214.512H585.312V236.928H601.992V240H581.376ZM583.632 226.896V223.848H599.736V226.896H583.632ZM609.213 231.072L608.373 217.992V204.48H612.549V217.992L611.733 231.072H609.213ZM610.461 240.312C609.613 240.312 608.925 240.08 608.397 239.616C607.885 239.152 607.629 238.528 607.629 237.744C607.629 236.944 607.885 236.312 608.397 235.848C608.909 235.368 609.597 235.128 610.461 235.128C611.325 235.128 612.013 235.368 612.525 235.848C613.037 236.328 613.293 236.96 613.293 237.744C613.293 238.512 613.029 239.136 612.501 239.616C611.989 240.08 611.309 240.312 610.461 240.312Z"
                      stroke="white" stroke-width="4" mask="url(#path-3-inside-3_1_10)" class="WKCoMIDn_5"/>
            </g>
        </g>
        <g id="Come On In" clip-path="url(#clip2_1_10)">
            <path id="Vector_4"
                  d="M410 267H311C305.477 267 301 271.477 301 277V297C301 302.523 305.477 307 311 307H410C415.523 307 420 302.523 420 297V277C420 271.477 415.523 267 410 267Z"
                  fill="#B7207B" class="WKCoMIDn_6"/>
            <g id="Vector_5">
                <mask id="path-5-inside-4_1_10" fill="white">
                    <path d="M323.048 293.152C321.128 293.152 319.637 292.667 318.576 291.696C317.52 290.725 316.992 289.195 316.992 287.104C316.992 285.744 317.237 284.611 317.728 283.704C318.219 282.797 318.923 282.123 319.84 281.68C320.763 281.232 321.875 281.008 323.176 281.008C323.72 281.008 324.229 281.04 324.704 281.104C325.179 281.168 325.659 281.267 326.144 281.4V282.568C325.211 282.307 324.243 282.176 323.24 282.176C321.656 282.176 320.459 282.571 319.648 283.36C318.837 284.144 318.432 285.381 318.432 287.072C318.432 288.811 318.832 290.064 319.632 290.832C320.437 291.6 321.6 291.984 323.12 291.984C323.653 291.984 324.157 291.947 324.632 291.872C325.112 291.797 325.616 291.675 326.144 291.504V292.672C325.205 292.992 324.173 293.152 323.048 293.152ZM331.252 293.152C330.398 293.152 329.66 292.989 329.036 292.664C328.412 292.339 327.926 291.84 327.58 291.168C327.238 290.496 327.068 289.659 327.068 288.656C327.068 287.669 327.238 286.843 327.58 286.176C327.921 285.509 328.404 285.011 329.028 284.68C329.652 284.349 330.393 284.184 331.252 284.184C332.569 284.184 333.593 284.557 334.324 285.304C335.06 286.045 335.428 287.163 335.428 288.656C335.428 289.643 335.254 290.472 334.908 291.144C334.566 291.816 334.081 292.32 333.452 292.656C332.828 292.987 332.094 293.152 331.252 293.152ZM331.252 292.056C333.134 292.056 334.076 290.928 334.076 288.672C334.076 287.488 333.83 286.629 333.34 286.096C332.854 285.557 332.158 285.288 331.252 285.288C330.345 285.288 329.646 285.555 329.156 286.088C328.67 286.621 328.428 287.475 328.428 288.648C328.428 290.92 329.369 292.056 331.252 292.056ZM347.24 284.184C348.163 284.184 348.883 284.456 349.4 285C349.923 285.539 350.184 286.384 350.184 287.536V293H348.848V287.6C348.848 286.805 348.683 286.235 348.352 285.888C348.021 285.536 347.555 285.36 346.952 285.36C346.515 285.36 346.085 285.451 345.664 285.632C345.248 285.813 344.885 286.096 344.576 286.48C344.635 286.805 344.664 287.155 344.664 287.528V293H343.336V287.6C343.336 286.805 343.176 286.235 342.856 285.888C342.541 285.536 342.088 285.36 341.496 285.36C341.043 285.36 340.605 285.461 340.184 285.664C339.763 285.861 339.395 286.16 339.08 286.56V293H337.736V284.32H338.856L338.952 285.312H339.04C339.397 284.949 339.816 284.672 340.296 284.48C340.776 284.283 341.285 284.184 341.824 284.184C342.373 284.184 342.851 284.288 343.256 284.496C343.667 284.704 343.992 285.024 344.232 285.456C344.675 285.013 345.155 284.691 345.672 284.488C346.195 284.285 346.717 284.184 347.24 284.184ZM360.101 289.088H353.725C353.762 290.144 354.061 290.912 354.621 291.392C355.181 291.867 356.026 292.104 357.157 292.104C357.882 292.104 358.709 291.976 359.637 291.72V292.768C358.719 293.024 357.834 293.152 356.981 293.152C355.461 293.152 354.311 292.787 353.533 292.056C352.754 291.32 352.365 290.189 352.365 288.664C352.365 287.699 352.519 286.883 352.829 286.216C353.143 285.544 353.594 285.037 354.181 284.696C354.773 284.355 355.482 284.184 356.309 284.184C357.53 284.184 358.466 284.571 359.117 285.344C359.773 286.117 360.101 287.237 360.101 288.704V289.088ZM356.293 285.128C355.471 285.128 354.842 285.381 354.405 285.888C353.973 286.389 353.743 287.163 353.717 288.208H358.821C358.794 287.157 358.57 286.381 358.149 285.88C357.727 285.379 357.109 285.128 356.293 285.128ZM370.377 293.152C369.523 293.152 368.785 292.989 368.161 292.664C367.537 292.339 367.051 291.84 366.705 291.168C366.363 290.496 366.193 289.659 366.193 288.656C366.193 287.669 366.363 286.843 366.705 286.176C367.046 285.509 367.529 285.011 368.153 284.68C368.777 284.349 369.518 284.184 370.377 284.184C371.694 284.184 372.718 284.557 373.449 285.304C374.185 286.045 374.553 287.163 374.553 288.656C374.553 289.643 374.379 290.472 374.033 291.144C373.691 291.816 373.206 292.32 372.577 292.656C371.953 292.987 371.219 293.152 370.377 293.152ZM370.377 292.056C372.259 292.056 373.201 290.928 373.201 288.672C373.201 287.488 372.955 286.629 372.465 286.096C371.979 285.557 371.283 285.288 370.377 285.288C369.47 285.288 368.771 285.555 368.281 286.088C367.795 286.621 367.553 287.475 367.553 288.648C367.553 290.92 368.494 292.056 370.377 292.056ZM376.861 284.32H377.981L378.077 285.312H378.165C378.586 284.949 379.069 284.672 379.613 284.48C380.157 284.283 380.725 284.184 381.317 284.184C382.336 284.184 383.131 284.459 383.701 285.008C384.277 285.557 384.565 286.416 384.565 287.584V293H383.221V287.624C383.221 286.824 383.035 286.248 382.661 285.896C382.293 285.539 381.752 285.36 381.037 285.36C380.531 285.36 380.024 285.456 379.517 285.648C379.01 285.84 378.573 286.133 378.205 286.528V293H376.861V284.32ZM391.705 293V284.32H393.049V293H391.705ZM392.377 282.432C392.078 282.432 391.849 282.363 391.689 282.224C391.529 282.085 391.449 281.888 391.449 281.632C391.449 281.376 391.529 281.179 391.689 281.04C391.849 280.896 392.078 280.824 392.377 280.824C392.675 280.824 392.905 280.896 393.065 281.04C393.225 281.179 393.305 281.376 393.305 281.632C393.305 281.888 393.225 282.085 393.065 282.224C392.905 282.363 392.675 282.432 392.377 282.432ZM395.861 284.32H396.981L397.077 285.312H397.165C397.587 284.949 398.069 284.672 398.613 284.48C399.157 284.283 399.725 284.184 400.317 284.184C401.336 284.184 402.13 284.459 402.701 285.008C403.277 285.557 403.565 286.416 403.565 287.584V293H402.221V287.624C402.221 286.824 402.034 286.248 401.661 285.896C401.293 285.539 400.752 285.36 400.037 285.36C399.531 285.36 399.024 285.456 398.517 285.648C398.01 285.84 397.573 286.133 397.205 286.528V293H395.861V284.32Z"
                          class="WKCoMIDn_7"/>
                </mask>
                <path d="M323.048 293.152C321.128 293.152 319.637 292.667 318.576 291.696C317.52 290.725 316.992 289.195 316.992 287.104C316.992 285.744 317.237 284.611 317.728 283.704C318.219 282.797 318.923 282.123 319.84 281.68C320.763 281.232 321.875 281.008 323.176 281.008C323.72 281.008 324.229 281.04 324.704 281.104C325.179 281.168 325.659 281.267 326.144 281.4V282.568C325.211 282.307 324.243 282.176 323.24 282.176C321.656 282.176 320.459 282.571 319.648 283.36C318.837 284.144 318.432 285.381 318.432 287.072C318.432 288.811 318.832 290.064 319.632 290.832C320.437 291.6 321.6 291.984 323.12 291.984C323.653 291.984 324.157 291.947 324.632 291.872C325.112 291.797 325.616 291.675 326.144 291.504V292.672C325.205 292.992 324.173 293.152 323.048 293.152ZM331.252 293.152C330.398 293.152 329.66 292.989 329.036 292.664C328.412 292.339 327.926 291.84 327.58 291.168C327.238 290.496 327.068 289.659 327.068 288.656C327.068 287.669 327.238 286.843 327.58 286.176C327.921 285.509 328.404 285.011 329.028 284.68C329.652 284.349 330.393 284.184 331.252 284.184C332.569 284.184 333.593 284.557 334.324 285.304C335.06 286.045 335.428 287.163 335.428 288.656C335.428 289.643 335.254 290.472 334.908 291.144C334.566 291.816 334.081 292.32 333.452 292.656C332.828 292.987 332.094 293.152 331.252 293.152ZM331.252 292.056C333.134 292.056 334.076 290.928 334.076 288.672C334.076 287.488 333.83 286.629 333.34 286.096C332.854 285.557 332.158 285.288 331.252 285.288C330.345 285.288 329.646 285.555 329.156 286.088C328.67 286.621 328.428 287.475 328.428 288.648C328.428 290.92 329.369 292.056 331.252 292.056ZM347.24 284.184C348.163 284.184 348.883 284.456 349.4 285C349.923 285.539 350.184 286.384 350.184 287.536V293H348.848V287.6C348.848 286.805 348.683 286.235 348.352 285.888C348.021 285.536 347.555 285.36 346.952 285.36C346.515 285.36 346.085 285.451 345.664 285.632C345.248 285.813 344.885 286.096 344.576 286.48C344.635 286.805 344.664 287.155 344.664 287.528V293H343.336V287.6C343.336 286.805 343.176 286.235 342.856 285.888C342.541 285.536 342.088 285.36 341.496 285.36C341.043 285.36 340.605 285.461 340.184 285.664C339.763 285.861 339.395 286.16 339.08 286.56V293H337.736V284.32H338.856L338.952 285.312H339.04C339.397 284.949 339.816 284.672 340.296 284.48C340.776 284.283 341.285 284.184 341.824 284.184C342.373 284.184 342.851 284.288 343.256 284.496C343.667 284.704 343.992 285.024 344.232 285.456C344.675 285.013 345.155 284.691 345.672 284.488C346.195 284.285 346.717 284.184 347.24 284.184ZM360.101 289.088H353.725C353.762 290.144 354.061 290.912 354.621 291.392C355.181 291.867 356.026 292.104 357.157 292.104C357.882 292.104 358.709 291.976 359.637 291.72V292.768C358.719 293.024 357.834 293.152 356.981 293.152C355.461 293.152 354.311 292.787 353.533 292.056C352.754 291.32 352.365 290.189 352.365 288.664C352.365 287.699 352.519 286.883 352.829 286.216C353.143 285.544 353.594 285.037 354.181 284.696C354.773 284.355 355.482 284.184 356.309 284.184C357.53 284.184 358.466 284.571 359.117 285.344C359.773 286.117 360.101 287.237 360.101 288.704V289.088ZM356.293 285.128C355.471 285.128 354.842 285.381 354.405 285.888C353.973 286.389 353.743 287.163 353.717 288.208H358.821C358.794 287.157 358.57 286.381 358.149 285.88C357.727 285.379 357.109 285.128 356.293 285.128ZM370.377 293.152C369.523 293.152 368.785 292.989 368.161 292.664C367.537 292.339 367.051 291.84 366.705 291.168C366.363 290.496 366.193 289.659 366.193 288.656C366.193 287.669 366.363 286.843 366.705 286.176C367.046 285.509 367.529 285.011 368.153 284.68C368.777 284.349 369.518 284.184 370.377 284.184C371.694 284.184 372.718 284.557 373.449 285.304C374.185 286.045 374.553 287.163 374.553 288.656C374.553 289.643 374.379 290.472 374.033 291.144C373.691 291.816 373.206 292.32 372.577 292.656C371.953 292.987 371.219 293.152 370.377 293.152ZM370.377 292.056C372.259 292.056 373.201 290.928 373.201 288.672C373.201 287.488 372.955 286.629 372.465 286.096C371.979 285.557 371.283 285.288 370.377 285.288C369.47 285.288 368.771 285.555 368.281 286.088C367.795 286.621 367.553 287.475 367.553 288.648C367.553 290.92 368.494 292.056 370.377 292.056ZM376.861 284.32H377.981L378.077 285.312H378.165C378.586 284.949 379.069 284.672 379.613 284.48C380.157 284.283 380.725 284.184 381.317 284.184C382.336 284.184 383.131 284.459 383.701 285.008C384.277 285.557 384.565 286.416 384.565 287.584V293H383.221V287.624C383.221 286.824 383.035 286.248 382.661 285.896C382.293 285.539 381.752 285.36 381.037 285.36C380.531 285.36 380.024 285.456 379.517 285.648C379.01 285.84 378.573 286.133 378.205 286.528V293H376.861V284.32ZM391.705 293V284.32H393.049V293H391.705ZM392.377 282.432C392.078 282.432 391.849 282.363 391.689 282.224C391.529 282.085 391.449 281.888 391.449 281.632C391.449 281.376 391.529 281.179 391.689 281.04C391.849 280.896 392.078 280.824 392.377 280.824C392.675 280.824 392.905 280.896 393.065 281.04C393.225 281.179 393.305 281.376 393.305 281.632C393.305 281.888 393.225 282.085 393.065 282.224C392.905 282.363 392.675 282.432 392.377 282.432ZM395.861 284.32H396.981L397.077 285.312H397.165C397.587 284.949 398.069 284.672 398.613 284.48C399.157 284.283 399.725 284.184 400.317 284.184C401.336 284.184 402.13 284.459 402.701 285.008C403.277 285.557 403.565 286.416 403.565 287.584V293H402.221V287.624C402.221 286.824 402.034 286.248 401.661 285.896C401.293 285.539 400.752 285.36 400.037 285.36C399.531 285.36 399.024 285.456 398.517 285.648C398.01 285.84 397.573 286.133 397.205 286.528V293H395.861V284.32Z"
                      stroke="white" stroke-width="2" mask="url(#path-5-inside-4_1_10)" class="WKCoMIDn_8"/>
            </g>
        </g>
    </g>
    <defs>
        <clipPath id="clip0_1_10">
            <path fill="white" transform="translate(149 159)" d="M0 0 L130 0 L130 37 L0 37 Z"
                  class="WKCoMIDn_9"/>
        </clipPath>
        <clipPath id="clip1_1_10">
            <path fill="white" transform="translate(105 204)" d="M0 0 L509 0 L509 37 L0 37 Z"
                  class="WKCoMIDn_10"/>
        </clipPath>
        <clipPath id="clip2_1_10">
            <path fill="white" transform="translate(301 267)" d="M0 0 L119 0 L119 40 L0 40 Z"
                  class="WKCoMIDn_11"/>
        </clipPath>
    </defs>
    <style>.WKCoMIDn_0{stroke-dasharray:2675 2677;stroke-dashoffset:2676;animation:WKCoMIDn_draw 4266ms linear 0ms
        forwards;}.WKCoMIDn_1{stroke-dasharray:2675 2677;stroke-dashoffset:2676;animation:WKCoMIDn_draw 4266ms linear
        193ms forwards;}.WKCoMIDn_2{stroke-dasharray:755 757;stroke-dashoffset:756;animation:WKCoMIDn_draw 4266ms linear
        387ms forwards;}.WKCoMIDn_3{stroke-dasharray:755 757;stroke-dashoffset:756;animation:WKCoMIDn_draw 4266ms linear
        581ms forwards;}.WKCoMIDn_4{stroke-dasharray:2617 2619;stroke-dashoffset:2618;animation:WKCoMIDn_draw 4266ms
        linear 775ms forwards;}.WKCoMIDn_5{stroke-dasharray:2617 2619;stroke-dashoffset:2618;animation:WKCoMIDn_draw
        4266ms linear 969ms forwards;}.WKCoMIDn_6{stroke-dasharray:301 303;stroke-dashoffset:302;animation:WKCoMIDn_draw
        4266ms linear 1163ms forwards;}.WKCoMIDn_7{stroke-dasharray:389
        391;stroke-dashoffset:390;animation:WKCoMIDn_draw 4266ms linear 1357ms
        forwards;}.WKCoMIDn_8{stroke-dasharray:389 391;stroke-dashoffset:390;animation:WKCoMIDn_draw 4266ms linear
        1551ms forwards;}.WKCoMIDn_9{stroke-dasharray:334 336;stroke-dashoffset:335;animation:WKCoMIDn_draw 4266ms
        linear 1745ms forwards;}.WKCoMIDn_10{stroke-dasharray:1092 1094;stroke-dashoffset:1093;animation:WKCoMIDn_draw
        4266ms linear 1939ms forwards;}.WKCoMIDn_11{stroke-dasharray:318
        320;stroke-dashoffset:319;animation:WKCoMIDn_draw 4266ms linear 2133ms forwards;}@keyframes
        WKCoMIDn_draw{100%{stroke-dashoffset:0;}}@keyframes
        WKCoMIDn_fade{0%{stroke-opacity:1;}96.22641509433963%{stroke-opacity:1;}100%{stroke-opacity:0;}}
    </style>
</svg>
